<?xml version="1.0" encoding="utf-8"?>
<!-- Generator: Adobe Illustrator 23.0.6, SVG Export Plug-In . SVG Version: 6.00 Build 0)  -->
<svg version="1.1" id="Layer_1" xmlns="http://www.w3.org/2000/svg" xmlns:xlink="http://www.w3.org/1999/xlink" x="0px" y="0px"
	 viewBox="0 0 512 512" style="enable-background:new 0 0 512 512;" xml:space="preserve">
<style type="text/css">
	.st0{fill:#262626;}
	.st1{fill:none;stroke:#262626;stroke-width:30;stroke-miterlimit:10;}
	.st2{fill:none;stroke:#262626;stroke-width:30;stroke-linecap:round;stroke-linejoin:round;stroke-miterlimit:10;}
	.st3{clip-path:url(#SVGID_2_);}
	.st4{clip-path:url(#SVGID_4_);}
</style>
<g>
	<path class="st0" d="M469.292,175.033c-0.294-6.793-5.368-12.422-12.095-13.416l-309.318-45.692V79.218
		c0-5.65-3.354-10.761-8.538-13.009L60.875,32.175c-7.184-3.117-15.537,0.182-18.653,7.367c-3.116,7.185,0.182,15.536,7.367,18.652
		l69.928,30.33v272.414c0,0.105,0.001,0.21,0.004,0.315c0.054,2.455,1.022,24.411,17.973,39.381
		c8.264,7.299,18.549,11.456,30.688,12.438c-2.711,6.023-4.232,12.693-4.232,19.714c0,26.585,21.629,48.214,48.214,48.214
		s48.214-21.629,48.214-48.214c0-7.076-1.545-13.794-4.295-19.853h99.345c-2.75,6.059-4.295,12.777-4.295,19.853
		c0,26.585,21.629,48.214,48.214,48.214s48.214-21.629,48.214-48.214c0-21.729-14.452-40.139-34.246-46.143
		c-2.146-1.305-4.656-2.071-7.351-2.071H180.967c-0.481,0-0.961,0.024-1.439,0.073c-10.197,1.042-17.977-0.691-23.121-5.149
		c-7.509-6.506-8.444-17.58-8.528-18.878v-31.647c8.236,3.461,16.613,4.646,22.992,4.646c1.074,0,2.093-0.033,3.043-0.095h237.724
		c0.125,0,0.248-0.002,0.373-0.005c34.921-0.92,53.623-14.54,57.175-41.64C473.017,262.637,469.445,178.597,469.292,175.033z
		 M232.017,432.786c0,10.947-8.906,19.853-19.853,19.853s-19.853-8.906-19.853-19.853s8.906-19.853,19.853-19.853
		S232.017,421.84,232.017,432.786z M399.347,452.639c-10.947,0-19.853-8.906-19.853-19.853s8.906-19.853,19.853-19.853
		c10.947,0,19.853,8.906,19.853,19.853S410.294,452.639,399.347,452.639z M441.064,288.193c-0.946,7.222-2.124,16.206-29.618,16.969
		H173.404c-0.382,0-0.763,0.016-1.144,0.046c-0.158,0.015-15.729,0.78-22.529-9.658c-0.547-0.84-1.171-1.6-1.852-2.283V144.594
		l293.523,43.359C442.25,212.207,443.785,267.423,441.064,288.193z"/>
</g>
</svg>
